<svg id="Layer_1" data-name="Layer 1" xmlns="http://www.w3.org/2000/svg" viewBox="0 0 785.14 296.97"><defs><style>.cls-1{fill:#0086f4;}.cls-2{opacity:0.4;}.cls-3,.cls-4{fill:none;stroke:#fff;stroke-miterlimit:10;}.cls-3{stroke-width:1px;}.cls-4{stroke-width:0.61px;}.cls-5{fill:#1dc9db;}.cls-6{fill:#0795a0;}.cls-7{fill:#bfbfbf;}.cls-8{fill:#294e84;}.cls-9{fill:#f9d628;}.cls-10{fill:#f76a00;}.cls-11{fill:#fff066;}.cls-12{fill:#f91c46;}.cls-13{fill:#fff;}.cls-14{fill:#bbf9dc;}.cls-15{fill:#ff5534;}.cls-16{fill:#f973cc;}.cls-17{fill:#6ef9eb;}.cls-18{fill:#f766c7;}.cls-19{fill:#47fcaa;}.cls-20,.cls-21{fill:#e6faff;}.cls-21{opacity:0.9;}</style></defs><rect class="cls-1" x="7.08" y="7.14" width="755" height="281"/><g class="cls-2"><line class="cls-3" x1="7.31" y1="43.85" x2="762.53" y2="43.85"/><line class="cls-3" x1="7.31" y1="74.82" x2="762.53" y2="74.82"/><line class="cls-3" x1="7.31" y1="105.78" x2="762.53" y2="105.78"/><line class="cls-3" x1="7.31" y1="136.75" x2="762.53" y2="136.75"/><line class="cls-3" x1="7.31" y1="167.71" x2="762.53" y2="167.71"/><line class="cls-3" x1="7.31" y1="198.68" x2="762.53" y2="198.68"/><line class="cls-3" x1="7.31" y1="229.64" x2="762.53" y2="229.64"/><line class="cls-3" x1="7.31" y1="260.6" x2="762.53" y2="260.6"/></g><g class="cls-2"><line class="cls-4" x1="40.01" y1="290.23" x2="40.01" y2="6.29"/><line class="cls-4" x1="71.51" y1="290.23" x2="71.51" y2="6.29"/><line class="cls-4" x1="103.01" y1="290.23" x2="103.01" y2="6.29"/><line class="cls-4" x1="134.51" y1="290.23" x2="134.51" y2="6.29"/><line class="cls-4" x1="166" y1="290.23" x2="166" y2="6.29"/><line class="cls-4" x1="197.5" y1="290.23" x2="197.5" y2="6.29"/><line class="cls-4" x1="229" y1="290.23" x2="229" y2="6.29"/><line class="cls-4" x1="260.5" y1="290.23" x2="260.5" y2="6.29"/><line class="cls-4" x1="291.99" y1="290.23" x2="291.99" y2="6.29"/><line class="cls-4" x1="323.49" y1="290.23" x2="323.49" y2="6.29"/><line class="cls-4" x1="354.99" y1="290.23" x2="354.99" y2="6.29"/><line class="cls-4" x1="386.48" y1="290.23" x2="386.48" y2="6.29"/><line class="cls-4" x1="417.98" y1="290.23" x2="417.98" y2="6.29"/><line class="cls-4" x1="449.48" y1="290.23" x2="449.48" y2="6.29"/><line class="cls-4" x1="480.98" y1="290.23" x2="480.98" y2="6.29"/><line class="cls-4" x1="512.47" y1="290.23" x2="512.47" y2="6.29"/><line class="cls-4" x1="543.97" y1="290.23" x2="543.97" y2="6.29"/><line class="cls-4" x1="575.47" y1="290.23" x2="575.47" y2="6.29"/><line class="cls-4" x1="606.97" y1="290.23" x2="606.97" y2="6.29"/><line class="cls-4" x1="638.46" y1="290.23" x2="638.46" y2="6.29"/><line class="cls-4" x1="669.96" y1="290.23" x2="669.96" y2="6.29"/><line class="cls-4" x1="701.46" y1="290.23" x2="701.46" y2="6.29"/><line class="cls-4" x1="732.96" y1="290.23" x2="732.96" y2="6.29"/></g><rect class="cls-5" x="8.74" y="288.56" width="11.98" height="6"/><path class="cls-6" d="M20.72,288.56v6h-12v-6h12m.5-.5h-13v7h13v-7Z"/><rect class="cls-5" x="20.71" y="288.55" width="11.98" height="6"/><path class="cls-6" d="M32.68,288.55v6h-12v-6h12m.5-.5h-13v7h13v-7Z"/><rect class="cls-5" x="32.67" y="288.54" width="11.98" height="6"/><path class="cls-6" d="M44.65,288.54v6h-12v-6h12m.5-.5h-13v7h13v-7Z"/><rect class="cls-5" x="44.64" y="288.53" width="11.98" height="6"/><path class="cls-6" d="M56.62,288.53v6h-12v-6h12m.5-.5h-13v7h13v-7Z"/><rect class="cls-5" x="56.61" y="288.52" width="11.98" height="6"/><path class="cls-6" d="M68.59,288.52v6h-12v-6h12m.5-.5h-13v7h13v-7Z"/><rect class="cls-5" x="68.58" y="288.5" width="11.98" height="6"/><path class="cls-6" d="M80.56,288.5v6h-12v-6h12m.5-.5h-13v7h13v-7Z"/><rect class="cls-5" x="80.55" y="288.49" width="11.98" height="6"/><path class="cls-6" d="M92.53,288.49v6h-12v-6h12M93,288h-13v7H93v-7Z"/><rect class="cls-5" x="92.51" y="288.48" width="11.98" height="6"/><path class="cls-6" d="M104.49,288.48v6h-12v-6h12m.5-.5H92v7h13v-7Z"/><rect class="cls-5" x="104.48" y="288.47" width="11.98" height="6"/><path class="cls-6" d="M116.46,288.47v6h-12v-6h12m.5-.5H104v7h13v-7Z"/><rect class="cls-5" x="116.45" y="288.45" width="11.98" height="6"/><path class="cls-6" d="M128.43,288.45v6h-12v-6h12m.5-.49H116v7h13v-7Z"/><rect class="cls-5" x="128.42" y="288.44" width="11.98" height="6"/><path class="cls-6" d="M140.4,288.44v6h-12v-6h12m.5-.5h-13v7h13v-7Z"/><rect class="cls-5" x="140.39" y="288.43" width="11.98" height="6"/><path class="cls-6" d="M152.37,288.43v6h-12v-6h12m.5-.5h-13v7h13v-7Z"/><rect class="cls-5" x="152.35" y="288.42" width="11.98" height="6"/><path class="cls-6" d="M164.33,288.42v6h-12v-6h12m.5-.5h-13v7h13v-7Z"/><rect class="cls-5" x="164.32" y="288.41" width="11.98" height="6"/><path class="cls-6" d="M176.3,288.41v6h-12v-6h12m.5-.5h-13v7h13v-7Z"/><rect class="cls-5" x="176.29" y="288.39" width="11.98" height="6"/><path class="cls-6" d="M188.27,288.39v6h-12v-6h12m.5-.5h-13v7h13v-7Z"/><rect class="cls-5" x="188.26" y="288.38" width="11.98" height="6"/><path class="cls-6" d="M200.24,288.38v6h-12v-6h12m.5-.5h-13v7h13v-7Z"/><rect class="cls-5" x="200.23" y="288.37" width="11.98" height="6"/><path class="cls-6" d="M212.21,288.37v6h-12v-6h12m.5-.5h-13v7h13v-7Z"/><rect class="cls-5" x="212.2" y="288.36" width="11.98" height="6"/><path class="cls-6" d="M224.17,288.36v6h-12v-6h12m.5-.5h-13v7h13v-7Z"/><rect class="cls-5" x="224.16" y="288.35" width="11.98" height="6"/><path class="cls-6" d="M236.14,288.35v6h-12v-6h12m.5-.5h-13v7h13v-7Z"/><rect class="cls-5" x="236.13" y="288.33" width="11.98" height="6"/><path class="cls-6" d="M248.11,288.33v6h-12v-6h12m.5-.5h-13v7h13v-7Z"/><rect class="cls-5" x="248.1" y="288.32" width="11.98" height="6"/><path class="cls-6" d="M260.08,288.32v6h-12v-6h12m.5-.5h-13v7h13v-7Z"/><rect class="cls-5" x="260.07" y="288.31" width="11.98" height="6"/><path class="cls-6" d="M272.05,288.31v6h-12v-6h12m.5-.5h-13v7h13v-7Z"/><rect class="cls-5" x="272.04" y="288.3" width="11.98" height="6"/><path class="cls-6" d="M284,288.3v6H272v-6h12m.5-.5h-13v7h13v-7Z"/><rect class="cls-5" x="284" y="288.28" width="11.98" height="6"/><path class="cls-6" d="M296,288.28v6H284v-6h12m.5-.5h-13v7h13v-7Z"/><rect class="cls-5" x="295.97" y="288.27" width="11.98" height="6"/><path class="cls-6" d="M308,288.27v6H296v-6h12m.5-.5h-13v7h13v-7Z"/><rect class="cls-5" x="307.94" y="288.26" width="11.98" height="6"/><path class="cls-6" d="M319.92,288.26v6h-12v-6h12m.5-.5h-13v7h13v-7Z"/><rect class="cls-5" x="319.91" y="288.25" width="11.98" height="6"/><path class="cls-6" d="M331.89,288.25v6h-12v-6h12m.5-.5h-13v7h13v-7Z"/><rect class="cls-5" x="331.88" y="288.24" width="11.98" height="6"/><path class="cls-6" d="M343.86,288.24v6h-12v-6h12m.5-.5h-13v7h13v-7Z"/><rect class="cls-5" x="343.84" y="288.22" width="11.98" height="6"/><path class="cls-6" d="M355.82,288.22v6h-12v-6h12m.5-.5h-13v7h13v-7Z"/><rect class="cls-5" x="355.81" y="288.21" width="11.98" height="6"/><path class="cls-6" d="M367.79,288.21v6h-12v-6h12m.5-.5h-13v7h13v-7Z"/><rect class="cls-5" x="367.78" y="288.2" width="11.98" height="6"/><path class="cls-6" d="M379.76,288.2v6h-12v-6h12m.5-.5h-13v7h13v-7Z"/><rect class="cls-5" x="379.75" y="288.19" width="11.98" height="6"/><path class="cls-6" d="M391.73,288.19v6h-12v-6h12m.5-.5h-13v7h13v-7Z"/><rect class="cls-5" x="391.72" y="288.17" width="11.98" height="6"/><path class="cls-6" d="M403.7,288.17v6h-12v-6h12m.5-.49h-13v7h13v-7Z"/><rect class="cls-5" x="403.69" y="288.16" width="11.98" height="6"/><path class="cls-6" d="M415.66,288.16v6h-12v-6h12m.5-.5h-13v7h13v-7Z"/><rect class="cls-5" x="415.65" y="288.15" width="11.98" height="6"/><path class="cls-6" d="M427.63,288.15v6h-12v-6h12m.5-.5h-13v7h13v-7Z"/><rect class="cls-5" x="427.62" y="288.14" width="11.98" height="6"/><path class="cls-6" d="M439.6,288.14v6h-12v-6h12m.5-.5h-13v7h13v-7Z"/><rect class="cls-5" x="439.59" y="288.13" width="11.98" height="6"/><path class="cls-6" d="M451.57,288.13v6h-12v-6h12m.5-.5h-13v7h13v-7Z"/><rect class="cls-5" x="451.56" y="288.11" width="11.98" height="6"/><path class="cls-6" d="M463.54,288.11v6h-12v-6h12m.5-.5h-13v7h13v-7Z"/><rect class="cls-5" x="463.53" y="288.1" width="11.98" height="6"/><path class="cls-6" d="M475.5,288.1v6h-12v-6h12m.5-.5H463v7h13v-7Z"/><rect class="cls-5" x="475.49" y="288.09" width="11.98" height="6"/><path class="cls-6" d="M487.47,288.09v6h-12v-6h12m.5-.5H475v7h13v-7Z"/><rect class="cls-5" x="487.46" y="288.08" width="11.98" height="6"/><path class="cls-6" d="M499.44,288.08v6h-12v-6h12m.5-.5H487v7h13v-7Z"/><rect class="cls-5" x="499.43" y="288.07" width="11.98" height="6"/><path class="cls-6" d="M511.41,288.07v6h-12v-6h12m.5-.5h-13v7h13v-7Z"/><rect class="cls-5" x="511.4" y="288.05" width="11.98" height="6"/><path class="cls-6" d="M523.38,288.05v6h-12v-6h12m.5-.5h-13v7h13v-7Z"/><rect class="cls-5" x="523.37" y="288.04" width="11.98" height="6"/><path class="cls-6" d="M535.35,288v6h-12v-6h12m.49-.5h-13v7h13v-7Z"/><rect class="cls-5" x="535.33" y="288.03" width="11.98" height="6"/><path class="cls-6" d="M547.31,288v6h-12v-6h12m.5-.5h-13v7h13v-7Z"/><rect class="cls-5" x="547.3" y="288.02" width="11.98" height="6"/><path class="cls-6" d="M559.28,288v6h-12v-6h12m.5-.5h-13v7h13v-7Z"/><rect class="cls-5" x="559.27" y="288" width="11.98" height="6"/><path class="cls-6" d="M571.25,288v6h-12v-6h12m.5-.5h-13v7h13v-7Z"/><rect class="cls-5" x="571.24" y="287.99" width="11.98" height="6"/><path class="cls-6" d="M583.22,288v6h-12v-6h12m.5-.5h-13v7h13v-7Z"/><rect class="cls-5" x="583.21" y="287.98" width="11.98" height="6"/><path class="cls-6" d="M595.19,288v6h-12v-6h12m.5-.5h-13v7h13v-7Z"/><rect class="cls-5" x="595.17" y="287.97" width="11.98" height="6"/><path class="cls-6" d="M607.15,288v6h-12v-6h12m.5-.5h-13v7h13v-7Z"/><rect class="cls-5" x="607.14" y="287.96" width="11.98" height="6"/><path class="cls-6" d="M619.12,288v6h-12v-6h12m.5-.5h-13v7h13v-7Z"/><rect class="cls-5" x="619.11" y="287.94" width="11.98" height="6"/><path class="cls-6" d="M631.09,287.94v6h-12v-6h12m.5-.5h-13v7h13v-7Z"/><rect class="cls-5" x="631.08" y="287.93" width="11.98" height="6"/><path class="cls-6" d="M643.06,287.93v6h-12v-6h12m.5-.5h-13v7h13v-7Z"/><rect class="cls-5" x="643.05" y="287.92" width="11.98" height="6"/><path class="cls-6" d="M655,287.92v6h-12v-6h12m.5-.5h-13v7h13v-7Z"/><rect class="cls-5" x="655.02" y="287.91" width="11.98" height="6"/><path class="cls-6" d="M667,287.91v6H655v-6h12m.5-.5h-13v7h13v-7Z"/><rect class="cls-5" x="666.98" y="287.89" width="11.98" height="6"/><path class="cls-6" d="M679,287.89v6H667v-6h12m.5-.49h-13v7h13v-7Z"/><rect class="cls-5" x="678.95" y="287.88" width="11.98" height="6"/><path class="cls-6" d="M690.93,287.88v6H679v-6h12m.5-.5h-13v7h13v-7Z"/><rect class="cls-5" x="690.92" y="287.87" width="11.98" height="6"/><path class="cls-6" d="M702.9,287.87v6h-12v-6h12m.5-.5h-13v7h13v-7Z"/><rect class="cls-5" x="702.89" y="287.86" width="11.98" height="6"/><path class="cls-6" d="M714.87,287.86v6h-12v-6h12m.5-.5h-13v7h13v-7Z"/><rect class="cls-5" x="714.86" y="287.85" width="11.98" height="6"/><path class="cls-6" d="M726.83,287.85v6h-12v-6h12m.5-.5h-13v7h13v-7Z"/><rect class="cls-5" x="726.82" y="287.83" width="11.98" height="6"/><path class="cls-6" d="M738.8,287.83v6h-12v-6h12m.5-.5h-13v7h13v-7Z"/><rect class="cls-5" x="738.79" y="287.82" width="11.98" height="6"/><path class="cls-6" d="M750.77,287.82v6h-12v-6h12m.5-.5h-13v7h13v-7Z"/><rect class="cls-5" x="750.76" y="287.81" width="11.98" height="6"/><path class="cls-6" d="M762.74,287.81v6h-12v-6h12m.5-.5h-13v7h13v-7Z"/><rect class="cls-5" x="7.75" y="2.31" width="11.98" height="6"/><path class="cls-6" d="M19.73,2.31v6h-12v-6h12m.5-.5h-13v7h13v-7Z"/><rect class="cls-5" x="19.72" y="2.3" width="11.98" height="6"/><path class="cls-6" d="M31.7,2.3v6h-12v-6h12m.5-.5h-13v7h13v-7Z"/><rect class="cls-5" x="31.69" y="2.29" width="11.98" height="6"/><path class="cls-6" d="M43.67,2.29v6h-12v-6h12m.49-.5h-13v7h13v-7Z"/><rect class="cls-5" x="43.65" y="2.28" width="11.98" height="6"/><path class="cls-6" d="M55.63,2.28v6h-12v-6h12m.5-.5h-13v7h13v-7Z"/><rect class="cls-5" x="55.62" y="2.26" width="11.98" height="6"/><path class="cls-6" d="M67.6,2.26v6h-12v-6h12m.5-.5h-13v7h13v-7Z"/><rect class="cls-5" x="67.59" y="2.25" width="11.98" height="6"/><path class="cls-6" d="M79.57,2.25v6h-12v-6h12m.5-.5h-13v7h13v-7Z"/><rect class="cls-5" x="79.56" y="2.24" width="11.98" height="6"/><path class="cls-6" d="M91.54,2.24v6h-12v-6h12m.5-.5h-13v7H92v-7Z"/><rect class="cls-5" x="91.53" y="2.23" width="11.98" height="6"/><path class="cls-6" d="M103.51,2.23v6h-12v-6h12m.5-.5H91v7h13v-7Z"/><rect class="cls-5" x="103.49" y="2.21" width="11.98" height="6"/><path class="cls-6" d="M115.47,2.21v6h-12v-6h12m.5-.5H103v7h13v-7Z"/><rect class="cls-5" x="115.46" y="2.2" width="11.98" height="6"/><path class="cls-6" d="M127.44,2.2v6h-12v-6h12m.5-.5H115v7h13v-7Z"/><rect class="cls-5" x="127.43" y="2.19" width="11.98" height="6"/><path class="cls-6" d="M139.41,2.19v6h-12v-6h12m.5-.5h-13v7h13v-7Z"/><rect class="cls-5" x="139.4" y="2.18" width="11.98" height="6"/><path class="cls-6" d="M151.38,2.18v6h-12v-6h12m.5-.5h-13v7h13v-7Z"/><rect class="cls-5" x="151.37" y="2.17" width="11.98" height="6"/><path class="cls-6" d="M163.35,2.17v6h-12v-6h12m.5-.5h-13v7h13v-7Z"/><rect class="cls-5" x="163.34" y="2.15" width="11.98" height="6"/><path class="cls-6" d="M175.31,2.15v6h-12v-6h12m.5-.5h-13v7h13v-7Z"/><rect class="cls-5" x="175.3" y="2.14" width="11.98" height="6"/><path class="cls-6" d="M187.28,2.14v6h-12v-6h12m.5-.5h-13v7h13v-7Z"/><rect class="cls-5" x="187.27" y="2.13" width="11.98" height="6"/><path class="cls-6" d="M199.25,2.13v6h-12v-6h12m.5-.5h-13v7h13v-7Z"/><rect class="cls-5" x="199.24" y="2.12" width="11.98" height="6"/><path class="cls-6" d="M211.22,2.12v6h-12v-6h12m.5-.5h-13v7h13v-7Z"/><rect class="cls-5" x="211.21" y="2.1" width="11.98" height="6"/><path class="cls-6" d="M223.19,2.1v6h-12v-6h12m.5-.49h-13v7h13v-7Z"/><rect class="cls-5" x="223.18" y="2.09" width="11.98" height="6"/><path class="cls-6" d="M235.15,2.09v6h-12v-6h12m.5-.5h-13v7h13v-7Z"/><rect class="cls-5" x="235.14" y="2.08" width="11.98" height="6"/><path class="cls-6" d="M247.12,2.08v6h-12v-6h12m.5-.5h-13v7h13v-7Z"/><rect class="cls-5" x="247.11" y="2.07" width="11.98" height="6"/><path class="cls-6" d="M259.09,2.07v6h-12v-6h12m.5-.5h-13v7h13v-7Z"/><rect class="cls-5" x="259.08" y="2.06" width="11.98" height="6"/><path class="cls-6" d="M271.06,2.06v6h-12v-6h12m.5-.5h-13v7h13v-7Z"/><rect class="cls-5" x="271.05" y="2.04" width="11.98" height="6"/><path class="cls-6" d="M283,2V8h-12V2h12m.5-.5h-13v7h13v-7Z"/><rect class="cls-5" x="283.02" y="2.03" width="11.98" height="6"/><path class="cls-6" d="M295,2V8H283V2h12m.49-.5h-13v7h13v-7Z"/><rect class="cls-5" x="294.98" y="2.02" width="11.98" height="6"/><path class="cls-6" d="M307,2V8H295V2h12m.5-.5h-13v7h13v-7Z"/><rect class="cls-5" x="306.95" y="2.01" width="11.98" height="6"/><path class="cls-6" d="M318.93,2V8H307V2h12m.5-.5h-13v7h13v-7Z"/><rect class="cls-5" x="318.92" y="2" width="11.98" height="6"/><path class="cls-6" d="M330.9,2V8h-12V2h12m.5-.5h-13v7h13v-7Z"/><rect class="cls-5" x="330.89" y="1.98" width="11.98" height="6"/><path class="cls-6" d="M342.87,2V8h-12V2h12m.5-.5h-13v7h13v-7Z"/><rect class="cls-5" x="342.86" y="1.97" width="11.98" height="6"/><path class="cls-6" d="M354.84,2V8h-12V2h12m.5-.5h-13v7h13v-7Z"/><rect class="cls-5" x="354.82" y="1.96" width="11.98" height="6"/><path class="cls-6" d="M366.8,2V8h-12V2h12m.5-.5h-13v7h13v-7Z"/><rect class="cls-5" x="366.79" y="1.95" width="11.98" height="6"/><path class="cls-6" d="M378.77,2V8h-12V2h12m.5-.5h-13v7h13v-7Z"/><rect class="cls-5" x="378.76" y="1.93" width="11.98" height="6"/><path class="cls-6" d="M390.74,1.93v6h-12v-6h12m.5-.5h-13v7h13v-7Z"/><rect class="cls-5" x="390.73" y="1.92" width="11.98" height="6"/><path class="cls-6" d="M402.71,1.92v6h-12v-6h12m.5-.5h-13v7h13v-7Z"/><rect class="cls-5" x="402.7" y="1.91" width="11.98" height="6"/><path class="cls-6" d="M414.68,1.91v6h-12v-6h12m.5-.5h-13v7h13v-7Z"/><rect class="cls-5" x="414.67" y="1.9" width="11.98" height="6"/><path class="cls-6" d="M426.64,1.9v6h-12v-6h12m.5-.5h-13v7h13v-7Z"/><rect class="cls-5" x="426.63" y="1.89" width="11.98" height="6"/><path class="cls-6" d="M438.61,1.89v6h-12v-6h12m.5-.5h-13v7h13v-7Z"/><rect class="cls-5" x="438.6" y="1.87" width="11.98" height="6"/><path class="cls-6" d="M450.58,1.87v6h-12v-6h12m.5-.5h-13v7h13v-7Z"/><rect class="cls-5" x="450.57" y="1.86" width="11.98" height="6"/><path class="cls-6" d="M462.55,1.86v6h-12v-6h12m.5-.5h-13v7h13v-7Z"/><rect class="cls-5" x="462.54" y="1.85" width="11.98" height="6"/><path class="cls-6" d="M474.52,1.85v6h-12v-6h12m.5-.5H462v7h13v-7Z"/><rect class="cls-5" x="474.51" y="1.84" width="11.98" height="6"/><path class="cls-6" d="M486.48,1.84v6h-12v-6h12m.5-.5H474v7h13v-7Z"/><rect class="cls-5" x="486.47" y="1.82" width="11.98" height="6"/><path class="cls-6" d="M498.45,1.82v6h-12v-6h12m.5-.49H486v7h13v-7Z"/><rect class="cls-5" x="498.44" y="1.81" width="11.98" height="6"/><path class="cls-6" d="M510.42,1.81v6h-12v-6h12m.5-.5h-13v7h13v-7Z"/><rect class="cls-5" x="510.41" y="1.8" width="11.98" height="6"/><path class="cls-6" d="M522.39,1.8v6h-12v-6h12m.5-.5h-13v7h13v-7Z"/><rect class="cls-5" x="522.38" y="1.79" width="11.98" height="6"/><path class="cls-6" d="M534.36,1.79v6h-12v-6h12m.5-.5h-13v7h13v-7Z"/><rect class="cls-5" x="534.35" y="1.78" width="11.98" height="6"/><path class="cls-6" d="M546.33,1.78v6h-12v-6h12m.5-.5h-13v7h13v-7Z"/><rect class="cls-5" x="546.31" y="1.76" width="11.98" height="6"/><path class="cls-6" d="M558.29,1.76v6h-12v-6h12m.5-.5h-13v7h13v-7Z"/><rect class="cls-5" x="558.28" y="1.75" width="11.98" height="6"/><path class="cls-6" d="M570.26,1.75v6h-12v-6h12m.5-.5h-13v7h13v-7Z"/><rect class="cls-5" x="570.25" y="1.74" width="11.98" height="6"/><path class="cls-6" d="M582.23,1.74v6h-12v-6h12m.5-.5h-13v7h13v-7Z"/><rect class="cls-5" x="582.22" y="1.73" width="11.98" height="6"/><path class="cls-6" d="M594.2,1.73v6h-12v-6h12m.5-.5h-13v7h13v-7Z"/><rect class="cls-5" x="594.19" y="1.72" width="11.98" height="6"/><path class="cls-6" d="M606.17,1.72v6h-12v-6h12m.5-.5h-13v7h13v-7Z"/><rect class="cls-5" x="606.15" y="1.7" width="11.98" height="6"/><path class="cls-6" d="M618.13,1.7v6h-12v-6h12m.5-.5h-13v7h13v-7Z"/><rect class="cls-5" x="618.12" y="1.69" width="11.98" height="6"/><path class="cls-6" d="M630.1,1.69v6h-12v-6h12m.5-.5h-13v7h13v-7Z"/><rect class="cls-5" x="630.09" y="1.68" width="11.98" height="6"/><path class="cls-6" d="M642.07,1.68v6h-12v-6h12m.5-.5h-13v7h13v-7Z"/><rect class="cls-5" x="642.06" y="1.67" width="11.98" height="6"/><path class="cls-6" d="M654,1.67v6h-12v-6h12m.5-.5h-13v7h13v-7Z"/><rect class="cls-5" x="654.03" y="1.65" width="11.98" height="6"/><path class="cls-6" d="M666,1.65v6H654v-6h12m.5-.5h-13v7h13v-7Z"/><rect class="cls-5" x="666" y="1.64" width="11.98" height="6"/><path class="cls-6" d="M678,1.64v6H666v-6h12m.5-.5h-13v7h13v-7Z"/><rect class="cls-5" x="677.96" y="1.63" width="11.98" height="6"/><path class="cls-6" d="M689.94,1.63v6H678v-6h12m.5-.5h-13v7h13v-7Z"/><rect class="cls-5" x="689.93" y="1.62" width="11.98" height="6"/><path class="cls-6" d="M701.91,1.62v6h-12v-6h12m.5-.5h-13v7h13v-7Z"/><rect class="cls-5" x="701.9" y="1.61" width="11.98" height="6"/><path class="cls-6" d="M713.88,1.61v6h-12v-6h12m.5-.5h-13v7h13v-7Z"/><rect class="cls-5" x="713.87" y="1.59" width="11.98" height="6"/><path class="cls-6" d="M725.85,1.59v6h-12v-6h12m.5-.5h-13v7h13v-7Z"/><rect class="cls-5" x="725.84" y="1.58" width="11.98" height="6"/><path class="cls-6" d="M737.82,1.58v6h-12v-6h12m.49-.5h-13v7h13v-7Z"/><rect class="cls-5" x="737.8" y="1.57" width="11.98" height="6"/><path class="cls-6" d="M749.78,1.57v6h-12v-6h12m.5-.5h-13v7h13v-7Z"/><rect class="cls-5" x="749.77" y="1.56" width="11.98" height="6"/><path class="cls-6" d="M761.75,1.56v6h-12v-6h12m.5-.5h-13v7h13v-7Z"/><rect class="cls-5" x="759.19" y="284.71" width="12.19" height="6" transform="translate(477.57 1052.99) rotate(-90)"/><path class="cls-6" d="M768.28,281.62v12.19h-6V281.62h6m.51-.5h-7v13.19h7V281.12Z"/><rect class="cls-5" x="759.18" y="272.54" width="12.19" height="6" transform="translate(489.73 1040.81) rotate(-90)"/><path class="cls-6" d="M768.27,269.44v12.19h-6V269.44h6m.5-.5h-7v13.19h7V268.94Z"/><rect class="cls-5" x="759.16" y="260.36" width="12.19" height="6" transform="translate(501.9 1028.62) rotate(-90)"/><path class="cls-6" d="M768.26,257.27v12.18h-6V257.27h6m.5-.51h-7V270h7v-13.2Z"/><rect class="cls-5" x="759.15" y="248.18" width="12.19" height="6" transform="translate(514.06 1016.43) rotate(-90)"/><path class="cls-6" d="M768.24,245.09v12.19h-6V245.09h6m.51-.5h-7v13.19h7V244.59Z"/><rect class="cls-5" x="759.14" y="236.01" width="12.19" height="6" transform="translate(526.23 1004.24) rotate(-90)"/><path class="cls-6" d="M768.23,232.91V245.1h-6V232.91h6m.51-.5h-7V245.6h7V232.41Z"/><rect class="cls-5" x="759.13" y="223.83" width="12.19" height="6" transform="translate(538.39 992.05) rotate(-90)"/><path class="cls-6" d="M768.22,220.74v12.18h-6V220.74h6m.5-.51h-7v13.2h7v-13.2Z"/><rect class="cls-5" x="759.11" y="211.65" width="12.19" height="6" transform="translate(550.55 979.86) rotate(-90)"/><path class="cls-6" d="M768.21,208.56v12.19h-6V208.56h6m.5-.5h-7v13.19h7V208.06Z"/><rect class="cls-5" x="759.1" y="199.48" width="12.19" height="6" transform="translate(562.72 967.67) rotate(-90)"/><path class="cls-6" d="M768.2,196.38v12.19h-6V196.38h6m.5-.5h-7v13.19h7V195.88Z"/><rect class="cls-5" x="759.09" y="187.3" width="12.19" height="6" transform="translate(574.88 955.48) rotate(-90)"/><path class="cls-6" d="M768.18,184.21v12.18h-6V184.21h6m.51-.51h-7v13.2h7V183.7Z"/><rect class="cls-5" x="759.08" y="175.12" width="12.19" height="6" transform="translate(587.05 943.3) rotate(-90)"/><path class="cls-6" d="M768.17,172v12.19h-6V172h6m.51-.5h-7v13.19h7V171.53Z"/><rect class="cls-5" x="759.07" y="162.95" width="12.19" height="6" transform="translate(599.21 931.11) rotate(-90)"/><path class="cls-6" d="M768.16,159.85V172h-6V159.85h6m.5-.5h-7v13.19h7V159.35Z"/><rect class="cls-5" x="759.05" y="150.77" width="12.19" height="6" transform="translate(611.38 918.92) rotate(-90)"/><path class="cls-6" d="M768.15,147.68v12.18h-6V147.68h6m.5-.51h-7v13.2h7v-13.2Z"/><rect class="cls-5" x="759.04" y="138.59" width="12.19" height="6" transform="translate(623.54 906.73) rotate(-90)"/><path class="cls-6" d="M768.14,135.5v12.19h-6V135.5h6m.5-.5h-7v13.19h7V135Z"/><rect class="cls-5" x="759.03" y="126.42" width="12.19" height="6" transform="translate(635.71 894.54) rotate(-90)"/><path class="cls-6" d="M768.12,123.32v12.19h-6V123.32h6m.51-.5h-7V136h7V122.82Z"/><rect class="cls-5" x="759.02" y="114.24" width="12.19" height="6" transform="translate(647.87 882.35) rotate(-90)"/><path class="cls-6" d="M768.11,111.15v12.18h-6V111.15h6m.5-.51h-7v13.2h7v-13.2Z"/><rect class="cls-5" x="759" y="102.06" width="12.19" height="6" transform="translate(660.04 870.16) rotate(-90)"/><path class="cls-6" d="M768.1,99v12.19h-6V99h6m.5-.5h-7v13.19h7V98.47Z"/><rect class="cls-5" x="758.99" y="89.89" width="12.19" height="6" transform="translate(672.2 857.97) rotate(-90)"/><path class="cls-6" d="M768.09,86.79V99h-6V86.79h6m.5-.5h-7V99.48h7V86.29Z"/><rect class="cls-5" x="758.98" y="77.71" width="12.19" height="6" transform="translate(684.36 845.78) rotate(-90)"/><path class="cls-6" d="M768.07,74.62V86.8h-6V74.62h6m.51-.51h-7v13.2h7V74.11Z"/><rect class="cls-5" x="758.97" y="65.53" width="12.19" height="6" transform="translate(696.53 833.6) rotate(-90)"/><path class="cls-6" d="M768.06,62.44V74.63h-6V62.44h6m.51-.51h-7v13.2h7V61.93Z"/><rect class="cls-5" x="758.96" y="53.36" width="12.19" height="6" transform="translate(708.69 821.41) rotate(-90)"/><path class="cls-6" d="M768.05,50.26V62.45h-6V50.26h6m.5-.5h-7V63h7V49.76Z"/><rect class="cls-5" x="758.94" y="41.18" width="12.19" height="6" transform="translate(720.86 809.22) rotate(-90)"/><path class="cls-6" d="M768,38.09V50.27h-6V38.09h6m.5-.51h-7v13.2h7V37.58Z"/><rect class="cls-5" x="758.93" y="29" width="12.19" height="6" transform="translate(733.02 797.03) rotate(-90)"/><path class="cls-6" d="M768,25.91V38.1h-6V25.91h6m.5-.51h-7V38.6h7V25.4Z"/><rect class="cls-5" x="758.92" y="16.83" width="12.19" height="6" transform="translate(745.19 784.84) rotate(-90)"/><path class="cls-6" d="M768,13.73V25.92h-6V13.73h6m.51-.5h-7V26.42h7V13.23Z"/><rect class="cls-5" x="758.91" y="4.65" width="12.19" height="6" transform="translate(757.35 772.65) rotate(-90)"/><path class="cls-6" d="M768,1.56V13.74h-6V1.56h6m.51-.51h-7v13.2h7V1.05Z"/><rect class="cls-5" x="-1.61" y="285.47" width="12.19" height="6" transform="translate(-283.99 292.96) rotate(-90)"/><path class="cls-6" d="M7.48,282.38v12.19h-6V282.38h6m.51-.51H1v13.2H8v-13.2Z"/><rect class="cls-5" x="-1.62" y="273.3" width="12.19" height="6" transform="translate(-271.82 280.77) rotate(-90)"/><path class="cls-6" d="M7.47,270.2v12.19h-6V270.2h6m.51-.5H1v13.19H8V269.7Z"/><rect class="cls-5" x="-1.63" y="261.12" width="12.19" height="6" transform="translate(-259.66 268.58) rotate(-90)"/><path class="cls-6" d="M7.46,258v12.18h-6V258h6m.5-.51H1v13.2H8v-13.2Z"/><rect class="cls-5" x="-1.65" y="248.94" width="12.19" height="6" transform="translate(-247.49 256.39) rotate(-90)"/><path class="cls-6" d="M7.45,245.85V258h-6V245.85h6m.5-.51h-7v13.2H8v-13.2Z"/><rect class="cls-5" x="-1.66" y="236.77" width="12.19" height="6" transform="translate(-235.33 244.2) rotate(-90)"/><path class="cls-6" d="M7.44,233.67v12.19h-6V233.67h6m.5-.5h-7v13.19h7V233.17Z"/><rect class="cls-5" x="-1.67" y="224.59" width="12.19" height="6" transform="translate(-223.17 232.01) rotate(-90)"/><path class="cls-6" d="M7.42,221.5v12.18h-6V221.5h6m.51-.51h-7v13.2h7V221Z"/><rect class="cls-5" x="-1.68" y="212.41" width="12.19" height="6" transform="translate(-211 219.82) rotate(-90)"/><path class="cls-6" d="M7.41,209.32v12.19h-6V209.32h6m.51-.51h-7V222h7v-13.2Z"/><rect class="cls-5" x="-1.69" y="200.24" width="12.19" height="6" transform="translate(-198.84 207.63) rotate(-90)"/><path class="cls-6" d="M7.4,197.14v12.19h-6V197.14h6m.5-.5H.9v13.19h7V196.64Z"/><rect class="cls-5" x="-1.71" y="188.06" width="12.19" height="6" transform="translate(-186.67 195.45) rotate(-90)"/><path class="cls-6" d="M7.39,185v12.18h-6V185h6m.5-.51h-7v13.2h7v-13.2Z"/><rect class="cls-5" x="-1.72" y="175.88" width="12.19" height="6" transform="translate(-174.51 183.26) rotate(-90)"/><path class="cls-6" d="M7.37,172.79V185h-6V172.79h6m.51-.51h-7v13.2h7v-13.2Z"/><rect class="cls-5" x="-1.73" y="163.71" width="12.19" height="6" transform="translate(-162.34 171.07) rotate(-90)"/><path class="cls-6" d="M7.36,160.61V172.8h-6V160.61h6m.51-.5h-7V173.3h7V160.11Z"/><rect class="cls-5" x="-1.74" y="151.53" width="12.19" height="6" transform="translate(-150.18 158.88) rotate(-90)"/><path class="cls-6" d="M7.35,148.44v12.18h-6V148.44h6m.5-.51h-7v13.2h7v-13.2Z"/><rect class="cls-5" x="-1.76" y="139.35" width="12.19" height="6" transform="translate(-138.01 146.69) rotate(-90)"/><path class="cls-6" d="M7.34,136.26v12.19h-6V136.26h6m.5-.51h-7V149h7v-13.2Z"/><rect class="cls-5" x="-1.77" y="127.18" width="12.19" height="6" transform="translate(-125.85 134.5) rotate(-90)"/><path class="cls-6" d="M7.33,124.08v12.19h-6V124.08h6m.5-.5h-7v13.19h7V123.58Z"/><rect class="cls-5" x="-1.78" y="115" width="12.19" height="6" transform="translate(-113.68 122.31) rotate(-90)"/><path class="cls-6" d="M7.31,111.9v12.19h-6V111.9h6m.51-.5h-7v13.2h7V111.4Z"/><rect class="cls-5" x="-1.79" y="102.82" width="12.19" height="6" transform="translate(-101.52 110.12) rotate(-90)"/><path class="cls-6" d="M7.3,99.73v12.19h-6V99.73h6m.51-.51H.8v13.2h7V99.22Z"/><rect class="cls-5" x="-1.8" y="90.65" width="12.19" height="6" transform="translate(-89.36 97.94) rotate(-90)"/><path class="cls-6" d="M7.29,87.55V99.74h-6V87.55h6m.5-.5h-7v13.19h7V87.05Z"/><rect class="cls-5" x="-1.82" y="78.47" width="12.19" height="6" transform="translate(-77.19 85.75) rotate(-90)"/><path class="cls-6" d="M7.28,75.37V87.56h-6V75.37h6m.5-.5h-7v13.2h7V74.87Z"/><rect class="cls-5" x="-1.83" y="66.29" width="12.19" height="6" transform="translate(-65.03 73.56) rotate(-90)"/><path class="cls-6" d="M7.27,63.2V75.39h-6V63.2h6m.5-.51h-7v13.2h7V62.69Z"/><rect class="cls-5" x="-1.84" y="54.12" width="12.19" height="6" transform="translate(-52.86 61.37) rotate(-90)"/><path class="cls-6" d="M7.25,51V63.21h-6V51h6m.51-.5h-7V63.71h7V50.52Z"/><rect class="cls-5" x="-1.85" y="41.94" width="12.19" height="6" transform="translate(-40.7 49.18) rotate(-90)"/><path class="cls-6" d="M7.24,38.84V51h-6V38.84h6m.5-.5h-7v13.2h7V38.34Z"/><rect class="cls-5" x="-1.87" y="29.76" width="12.19" height="6" transform="translate(-28.53 36.99) rotate(-90)"/><path class="cls-6" d="M7.23,26.67V38.86h-6V26.67h6m.5-.51h-7v13.2h7V26.16Z"/><rect class="cls-5" x="-1.88" y="17.59" width="12.19" height="6" transform="translate(-16.37 24.8) rotate(-90)"/><path class="cls-6" d="M7.22,14.49V26.68h-6V14.49h6m.5-.5h-7V27.18h7V14Z"/><rect class="cls-5" x="-1.89" y="5.41" width="12.19" height="6" transform="translate(-4.2 12.61) rotate(-90)"/><path class="cls-6" d="M7.2,2.31V14.5h-6V2.31h6m.51-.5H.7V15h7V1.81Z"/><rect class="cls-7" x="740.75" y="46.11" width="5.73" height="41.81"/><rect class="cls-7" x="730.7" y="46.11" width="3.9" height="41.81"/><rect class="cls-7" x="722.2" y="46.11" width="2.88" height="41.81"/><rect class="cls-7" x="714.34" y="37.75" width="68.72" height="8.83" rx="4.41"/><rect class="cls-7" x="714.34" y="87.28" width="68.72" height="8.83" rx="4.41"/><path class="cls-8" d="M226.26,119.12a62.17,62.17,0,0,0-44.83-40.75,61.41,61.41,0,0,0-13.91-1.58,62,62,0,0,0-58.74,42.34,61.4,61.4,0,0,0-3.18,19.59,61.92,61.92,0,1,0,120.66-19.6ZM197.5,165.05a39.92,39.92,0,1,1-30-66.26,40.41,40.41,0,0,1,8.79,1h0a39.9,39.9,0,0,1,21.18,65.29Z"/><path class="cls-9" d="M237.94,114.44a62.17,62.17,0,0,0-44.83-40.75,61.41,61.41,0,0,0-13.91-1.58,62,62,0,0,0-58.74,42.34A61.4,61.4,0,0,0,117.28,134a61.92,61.92,0,1,0,120.66-19.6Zm-28.76,45.93a39.92,39.92,0,1,1-30-66.26,40.41,40.41,0,0,1,8.79,1h0a39.9,39.9,0,0,1,21.18,65.29Z"/><polygon class="cls-10" points="162.25 130.73 162.25 130.75 162.24 130.76 162.22 130.86 162.21 130.89 162.19 130.99 162.18 131 162.15 130.91 162.14 130.85 162.14 130.84 162.13 130.81 162.12 130.78 162.11 130.74 162.1 130.7 162.07 130.56 162.14 130.63 162.18 130.45 162.25 130.73"/><path class="cls-10" d="M193.11,73.69,188,95.08h0a40.41,40.41,0,0,0-8.79-1,39.84,39.84,0,0,0-8.86,1l-5.07-21.41a62.09,62.09,0,0,1,13.93-1.58A61.41,61.41,0,0,1,193.11,73.69Z"/><polygon class="cls-10" points="162.31 130.98 162.26 130.93 162.19 130.99 162.18 131 162.01 131.16 162.07 130.94 162.07 130.92 162.09 130.83 162.1 130.79 162.1 130.78 162.11 130.74 162.12 130.7 162.14 130.63 162.18 130.45 162.25 130.73 162.25 130.75 162.28 130.87 162.28 130.88 162.29 130.9 162.31 130.98"/><path class="cls-10" d="M194.08,194.15a62.11,62.11,0,0,1-29.77,0l5.07-21.41a40,40,0,0,0,19.58,0Z"/><path class="cls-10" d="M151.32,105.49a39.88,39.88,0,0,0-9.77,15.27l-21.09-6.31a61.86,61.86,0,0,1,14.88-24.09Z"/><polygon class="cls-10" points="162.47 130.94 162.3 130.89 162.28 130.88 162.26 130.88 162.22 130.86 162.17 130.85 162.16 130.84 162.14 130.84 162.09 130.83 162.04 130.81 162.1 130.79 162.1 130.78 161.97 130.66 162.1 130.7 162.07 130.56 162.14 130.63 162.25 130.73 162.25 130.74 162.26 130.74 162.27 130.75 162.36 130.83 162.47 130.94"/><polygon class="cls-10" points="162.3 130.89 162.29 130.9 162.31 130.98 162.26 130.93 162.21 130.89 162.17 130.85 162.16 130.84 162.13 130.81 162.11 130.79 162.1 130.79 162.1 130.78 161.97 130.66 162.1 130.7 162.12 130.7 162.25 130.74 162.26 130.74 162.27 130.75 162.4 130.79 162.48 130.81 162.37 130.84 162.47 130.94 162.3 130.89"/><path class="cls-10" d="M239.11,149.7a61.79,61.79,0,0,1-13.93,25.76l-16-15.09A39.82,39.82,0,0,0,218,143.43Z"/><path class="cls-10" d="M149.21,160.37l-16,15.09a61.79,61.79,0,0,1-13.93-25.76l21.12-6.27A39.91,39.91,0,0,0,149.21,160.37Z"/><polygon class="cls-10" points="162.54 130.66 162.4 130.79 162.36 130.83 162.34 130.85 162.33 130.86 162.3 130.89 162.26 130.93 162.19 130.99 162.18 131 162.01 131.16 162.07 130.94 162.05 130.94 162.07 130.93 162.07 130.92 162.09 130.83 162.04 130.81 162.1 130.79 162.11 130.79 162.12 130.78 162.25 130.75 162.25 130.74 162.26 130.74 162.54 130.66"/><polygon class="cls-10" points="162.07 130.93 162.07 130.94 162.05 130.94 162.07 130.93"/><polygon class="cls-10" points="162.4 130.79 162.48 130.81 162.37 130.84 162.34 130.85 162.33 130.86 162.28 130.87 162.26 130.88 162.21 130.89 162.15 130.91 162.07 130.93 162.07 130.92 162.14 130.85 162.16 130.84 162.26 130.74 162.54 130.66 162.4 130.79"/><path class="cls-10" d="M237.94,114.44l-21.09,6.32a40,40,0,0,0-9.77-15.27l16-15.13A62,62,0,0,1,237.94,114.44Z"/><path class="cls-8" d="M677,170.93a62.17,62.17,0,0,0-44.83-40.75,61.41,61.41,0,0,0-13.91-1.58,62,62,0,0,0-58.74,42.34,61.4,61.4,0,0,0-3.18,19.59A61.92,61.92,0,1,0,677,170.93Zm-28.76,45.93a39.92,39.92,0,1,1-30-66.26,40.41,40.41,0,0,1,8.79,1h0a39.9,39.9,0,0,1,21.18,65.29Z"/><path class="cls-9" d="M687.71,174a62.17,62.17,0,0,0-37-48A61.93,61.93,0,0,0,565.48,172a61.93,61.93,0,0,0,117.17,36.87A62.16,62.16,0,0,0,687.71,174Zm-36.4,40.14a39.88,39.88,0,1,1-9.36-68h0a39.91,39.91,0,0,1,9.35,68Z"/><polygon class="cls-10" points="626.8 180.81 626.8 180.83 626.78 180.84 626.75 180.93 626.73 180.96 626.7 181.05 626.68 181.06 626.67 180.97 626.67 180.91 626.67 180.9 626.67 180.87 626.66 180.83 626.66 180.79 626.66 180.75 626.65 180.61 626.71 180.69 626.78 180.52 626.8 180.81"/><path class="cls-10" d="M650.75,126,642,146.12h0A40.43,40.43,0,0,0,624.57,143l-1.22-22a61.83,61.83,0,0,1,27.4,4.9Z"/><polygon class="cls-10" points="626.82 181.06 626.77 181.01 626.7 181.05 626.68 181.06 626.49 181.19 626.59 180.98 626.59 180.96 626.63 180.88 626.64 180.84 626.64 180.83 626.66 180.79 626.68 180.75 626.71 180.69 626.78 180.52 626.8 180.81 626.8 180.83 626.8 180.95 626.8 180.96 626.81 180.98 626.82 181.06"/><path class="cls-10" d="M630.49,244.72a62,62,0,0,1-29.3-5.25L610,219.29a40.08,40.08,0,0,0,19.27,3.46Z"/><path class="cls-10" d="M604,149.91a39.88,39.88,0,0,0-12.31,13.31l-19.65-9.92A61.86,61.86,0,0,1,591,132.2Z"/><polygon class="cls-10" points="626.98 181.05 626.82 180.97 626.8 180.96 626.78 180.96 626.75 180.93 626.7 180.91 626.69 180.9 626.67 180.9 626.63 180.88 626.58 180.85 626.64 180.84 626.64 180.83 626.54 180.69 626.66 180.75 626.65 180.61 626.71 180.69 626.8 180.81 626.8 180.82 626.81 180.82 626.82 180.83 626.89 180.93 626.98 181.05"/><polygon class="cls-10" points="626.82 180.97 626.81 180.98 626.82 181.06 626.77 181.01 626.73 180.96 626.7 180.91 626.69 180.9 626.67 180.87 626.65 180.84 626.64 180.84 626.64 180.83 626.54 180.69 626.66 180.75 626.68 180.75 626.8 180.82 626.81 180.82 626.82 180.83 626.94 180.89 627.01 180.93 626.9 180.94 626.98 181.05 626.82 180.97"/><path class="cls-10" d="M682.65,208.89A61.88,61.88,0,0,1,664.4,231.8l-13.09-17.68A39.82,39.82,0,0,0,663,199Z"/><path class="cls-10" d="M592.27,203.56l-18.4,12a61.85,61.85,0,0,1-9.18-27.81l21.89-2.45A40,40,0,0,0,592.27,203.56Z"/><polygon class="cls-10" points="627.1 180.79 626.94 180.89 626.89 180.93 626.87 180.94 626.86 180.95 626.82 180.97 626.77 181.01 626.7 181.05 626.68 181.06 626.49 181.19 626.59 180.98 626.57 180.98 626.59 180.97 626.59 180.96 626.63 180.88 626.58 180.85 626.64 180.84 626.65 180.84 626.66 180.83 626.8 180.83 626.8 180.82 626.81 180.82 627.1 180.79"/><polygon class="cls-10" points="626.59 180.97 626.59 180.98 626.57 180.98 626.59 180.97"/><polygon class="cls-10" points="626.94 180.89 627.01 180.93 626.9 180.94 626.87 180.94 626.86 180.95 626.8 180.95 626.78 180.96 626.73 180.96 626.67 180.97 626.59 180.97 626.59 180.96 626.67 180.91 626.69 180.9 626.81 180.82 627.1 180.79 626.94 180.89"/><path class="cls-10" d="M687.71,174l-21.88,2.5a40,40,0,0,0-6.93-16.75l18.39-12.08A62.13,62.13,0,0,1,687.71,174Z"/><rect class="cls-8" x="255.91" y="88.57" width="23.08" height="156.54" rx="2.48" transform="translate(13.78 -20.29) rotate(4.46)"/><rect class="cls-8" x="398.66" y="104.54" width="23.08" height="156.54" rx="5.48" transform="translate(-26.14 76.55) rotate(-10.33)"/><rect class="cls-8" x="311.85" y="190.96" width="20.98" height="84.74" rx="3.43" transform="translate(540.86 -99.24) rotate(87.41)"/><rect class="cls-11" x="319.45" y="183.08" width="20.98" height="84.74" rx="3.43" transform="translate(540.23 -114.35) rotate(87.41)"/><path class="cls-8" d="M655.82,86.41,629.05,98.35s-1.65-3.24-3.47-6.7c-.4-.76-.81-1.53-1.21-2.27-1.47-2.79-2.83-5.28-3.27-5.86a5.66,5.66,0,0,0-1-.86c-.63-.47-1.5-1.07-2.5-1.73-2.24-1.48-5.15-3.28-7.4-4.66l-3-1.78-.63-.38s0,.19.12.52c.12.52.34,1.38.61,2.47.52,2,1.25,4.83,2,7.57.24.83.49,1.64.73,2.44l.12.39a30.48,30.48,0,0,1,1.16,7.16h0c0,.69.06,1.36.07,2,0,2.59-.14,4.46-.14,4.46L583,105.22s-.15-2.67-.38-6c-.06-.82-.12-1.7-.18-2.58-.16-2.27-.35-4.6-.53-6.46-.1-1-.2-1.89-.29-2.53,0-.14,0-.28-.06-.4A49.33,49.33,0,0,0,579,80l-.78-1.89c-.69-1.66-1.44-3.41-2.19-5.16-.37-.84-.73-1.69-1.1-2.52-1-2.25-1.94-4.42-2.76-6.28l-1.08-2.48c-.24-.53-.44-1-.62-1.42-.6-1.4-1.16-2.77-1.66-4.06-.35-.88-.66-1.71-1-2.49-1.08-2.89-1.73-4.9-1.73-4.9L614.6,37.23s1.77,2.4,4.19,5.62L620.43,45,624,49.71l1.67,2.15c1.39,1.78,2.7,3.42,3.76,4.69.55.66,1,1.22,1.44,1.66l.16.18a26.3,26.3,0,0,0,4.13,3.39c.76.54,1.57,1.08,2.39,1.64a54.47,54.47,0,0,1,5.79,4.29c.61.54,1.21,1.11,1.81,1.72h0c.54.55,1.08,1.15,1.61,1.78a54.36,54.36,0,0,1,5,7.26c.46.8.9,1.58,1.29,2.31C654.82,84,655.82,86.41,655.82,86.41Z"/><path class="cls-12" d="M571,44.86l48.45-11.57s12.3,16.63,16.28,21,10.48,6.51,15.91,13a68.85,68.85,0,0,1,9,15.19L633.88,94.4S627,81,625.92,79.58s-14.46-9.41-14.46-9.41,1.81,7.6,3.61,13.38,1.09,13.62,1.09,13.62l-28.33,4.1s-.84-14.34-1.44-18-8.56-21.09-11.09-27S571,44.86,571,44.86Z"/><path class="cls-12" d="M660.64,82.47,633.87,94.4s-1.65-3.23-3.47-6.69l-1.21-2.28c-1.47-2.78-2.83-5.28-3.27-5.86a6.23,6.23,0,0,0-1-.85c-.63-.48-1.5-1.07-2.5-1.73-2.24-1.48-5.15-3.29-7.4-4.66l-2.95-1.78-.63-.38s0,.19.12.52c.12.51.34,1.38.61,2.47.52,2,1.25,4.83,2,7.56.24.83.49,1.65.73,2.44l.12.39a30.56,30.56,0,0,1,1.16,7.17h0c0,.69.06,1.36.07,2,0,2.6-.14,4.47-.14,4.47l-28.33,4.09s-.15-2.67-.38-6c-.06-.83-.12-1.7-.18-2.59-.16-2.27-.35-4.59-.53-6.45-.1-1-.2-1.89-.29-2.53,0-.15,0-.28-.06-.4a49.33,49.33,0,0,0-2.56-7.24l-.78-1.89c-.69-1.66-1.44-3.42-2.19-5.17l-1.1-2.51c-1-2.25-1.94-4.43-2.76-6.29l-1.08-2.47c-.24-.53-.44-1-.62-1.43-.6-1.39-1.16-2.76-1.66-4.05-.35-.88-.66-1.72-.95-2.49-1.08-2.9-1.73-4.91-1.73-4.91l48.46-11.57s1.77,2.4,4.19,5.62l1.64,2.17,3.57,4.69,1.67,2.15c1.39,1.78,2.7,3.42,3.76,4.69.55.66,1,1.22,1.44,1.65,0,.07.11.12.16.18a25.81,25.81,0,0,0,4.13,3.4c.76.54,1.57,1.08,2.39,1.64a53.12,53.12,0,0,1,5.79,4.29c.61.53,1.21,1.1,1.81,1.72h0c.54.56,1.08,1.15,1.61,1.79a54.36,54.36,0,0,1,5,7.26c.46.8.9,1.58,1.29,2.31C659.64,80.07,660.64,82.47,660.64,82.47Z"/><path class="cls-13" d="M625.25,41.08c-2,.61-19.17,5.72-25.37,7.67-5.77,1.81-21.45,3.14-26.24,3.51-.35-.88-.66-1.72-.95-2.49,3.49-.26,20.64-1.63,26.43-3.45s20.34-6.17,24.49-7.41Z"/><path class="cls-13" d="M630.49,47.92C627,49,606.65,55.17,601.93,57c-4.54,1.8-19.71,2.86-24.93,3.17l-1.08-2.47c3.87-.23,20.63-1.3,25.07-3.06s22.55-7.31,27.83-8.91Z"/><path class="cls-13" d="M636,54.77c-.22.07-21.91,7.1-29.49,10.15-6.56,2.65-20.77,3.78-25.61,4.09l-1.1-2.51c3.45-.21,19.13-1.3,25.75-4,6.86-2.76,24.46-8.53,28.74-9.92.55.66,1,1.22,1.44,1.65,0,.07.11.12.16.18Z"/><path class="cls-13" d="M611.58,70.69c.12.51.34,1.38.61,2.47a131.67,131.67,0,0,1-14.07,2.74,55.46,55.46,0,0,1-7.08.36c-3,0-5.82-.12-7.21-.19l-.78-1.89,0-.7c.1,0,9.93.59,14.68-.1A131.92,131.92,0,0,0,611.58,70.69Z"/><path class="cls-13" d="M642.37,59.48C638,61.76,622.11,69.87,616.1,72l-1.06.35-2.95-1.78c1.11-.3,2.18-.63,3.17-1,5.33-1.87,19.16-8.89,24.72-11.74C640.74,58.38,641.55,58.92,642.37,59.48Z"/><path class="cls-13" d="M615,83.16c-6.66,2.18-24.18,2.94-28.21,3.08-.1-1-.2-1.89-.29-2.53,3.5-.13,21.6-.89,27.77-3C614.46,81.55,614.71,82.37,615,83.16Z"/><path class="cls-13" d="M586.44,92.56h0l-.22.9Z"/><path class="cls-13" d="M616.3,92.71c-2.45,1.09-6.5,1.33-11.09,1.59-2.63.15-5.35.31-7.93.64a55.62,55.62,0,0,1-6.81.47c-1.28,0-2.28-.06-3-.13-.06-.83-.12-1.7-.18-2.59a39.57,39.57,0,0,0,9.68-.27c2.67-.34,5.44-.51,8.11-.66,4.46-.25,9.06-.52,10.75-1.67l.42.63h0C616.27,91.42,616.29,92.09,616.3,92.71Z"/><path class="cls-13" d="M622,77.14l.33,1.23L622,77.14Z"/><path class="cls-13" d="M650,66c-3.24.28-8.68,3.51-14.43,6.92l-2.88,1.71a78.74,78.74,0,0,1-7.77,4.07c-.63-.48-1.5-1.07-2.5-1.73a58.65,58.65,0,0,0,9-4.54c1-.56,1.93-1.13,2.87-1.7,5.43-3.22,10.21-6,13.87-7,.61.53,1.21,1.1,1.81,1.72h0Z"/><path class="cls-13" d="M656.61,74.54a134.19,134.19,0,0,0-17.07,5.19,52.48,52.48,0,0,0-10.35,5.7l1.21,2.28a48.71,48.71,0,0,1,10.11-5.63,136.64,136.64,0,0,1,17.39-5.23Z"/><path class="cls-8" d="M94.83,237v.15a24.69,24.69,0,1,1-24.69-24.69,24.29,24.29,0,0,1,9.77,2A24.66,24.66,0,0,1,94.83,237Z"/><path class="cls-14" d="M101.26,232.36v.14a24.66,24.66,0,0,1-11.93,21.13,24.41,24.41,0,0,1-12.76,3.56,23.89,23.89,0,0,1-5.52-.63,24.68,24.68,0,1,1,30.21-24.2Z"/><path class="cls-15" d="M84.48,231.63c-2.08,5.75-8.47,3.51-14.86-3.84-3.64-4.18-9.27-7.27-13.47-9.16a24.71,24.71,0,0,1,30.19-8.8C88.71,215.91,86.13,227,84.48,231.63Z"/><path class="cls-15" d="M79,241.73c-.2,2.15-2.16,11.34-7.91,14.83a24.68,24.68,0,0,1-16-12c5.58-.06,16.75-.74,22.53-5C77.53,239.57,79.21,239.22,79,241.73Z"/><path class="cls-15" d="M101.26,232.36v.14a24.66,24.66,0,0,1-11.93,21.13c-2.91-3.63-4.66-12-4.25-14.41.48-2.76,2.39-2.76,2.39-2.76A25.36,25.36,0,0,0,101.26,232.36Z"/><rect class="cls-16" x="263.21" y="81.85" width="23.08" height="156.54" rx="2.48" transform="translate(13.28 -20.88) rotate(4.46)"/><path class="cls-8" d="M501.31,110.94a62.17,62.17,0,0,0-44.83-40.75,61.41,61.41,0,0,0-13.91-1.58A62,62,0,0,0,383.83,111a61.4,61.4,0,0,0-3.18,19.59,61.92,61.92,0,1,0,120.66-19.6Zm-28.76,45.93a39.92,39.92,0,1,1-30-66.26,40.41,40.41,0,0,1,8.79,1h0a39.9,39.9,0,0,1,21.18,65.29Z"/><path class="cls-17" d="M511.56,116.14a61.92,61.92,0,0,0-122.23-2,62.74,62.74,0,0,0-.79,15.77,61.93,61.93,0,1,0,123-13.81Zm-36.4,40.14a40,40,0,0,1-22.08,8.63,40.09,40.09,0,0,1-19.28-3.46,39.92,39.92,0,0,1,23.52-75.67,40.33,40.33,0,0,1,8.48,2.5h0a39.9,39.9,0,0,1,9.35,68Z"/><polygon class="cls-10" points="450.65 122.97 450.65 122.99 450.64 123 450.6 123.09 450.59 123.12 450.55 123.21 450.54 123.22 450.52 123.13 450.52 123.07 450.53 123.06 450.52 123.03 450.52 122.99 450.51 122.95 450.51 122.91 450.51 122.77 450.56 122.85 450.63 122.68 450.65 122.97"/><path class="cls-18" d="M474.61,68.13l-8.8,20.15h0a40.36,40.36,0,0,0-17.38-3.09l-1.22-22a61.91,61.91,0,0,1,27.41,4.9Z"/><polygon class="cls-10" points="450.67 123.22 450.63 123.17 450.55 123.21 450.54 123.22 450.34 123.35 450.44 123.14 450.44 123.12 450.48 123.04 450.5 123 450.5 122.99 450.51 122.95 450.53 122.92 450.56 122.85 450.63 122.68 450.65 122.97 450.65 122.99 450.66 123.11 450.66 123.12 450.66 123.14 450.67 123.22"/><path class="cls-18" d="M454.35,186.88A62.05,62.05,0,0,1,425,181.63l8.76-20.18a40.09,40.09,0,0,0,19.28,3.46Z"/><path class="cls-18" d="M427.87,92.07a40,40,0,0,0-12.31,13.31l-19.65-9.92a62.06,62.06,0,0,1,18.89-21.1Z"/><polygon class="cls-10" points="450.83 123.21 450.68 123.13 450.66 123.12 450.64 123.12 450.6 123.09 450.55 123.07 450.55 123.06 450.53 123.06 450.48 123.04 450.43 123.01 450.5 123 450.5 122.99 450.39 122.85 450.51 122.91 450.51 122.77 450.56 122.85 450.65 122.97 450.65 122.98 450.66 122.98 450.67 122.99 450.75 123.09 450.83 123.21"/><polygon class="cls-10" points="450.68 123.13 450.66 123.14 450.67 123.22 450.63 123.17 450.59 123.12 450.55 123.07 450.55 123.06 450.52 123.03 450.51 123 450.5 123 450.5 122.99 450.39 122.85 450.51 122.91 450.53 122.92 450.65 122.98 450.66 122.98 450.67 122.99 450.79 123.05 450.87 123.09 450.75 123.1 450.83 123.21 450.68 123.13"/><path class="cls-18" d="M506.5,151.05A61.78,61.78,0,0,1,488.25,174l-13.09-17.68a39.74,39.74,0,0,0,11.67-15.12Z"/><path class="cls-18" d="M416.13,145.72l-18.41,12A61.85,61.85,0,0,1,388.54,130l21.9-2.45A39.77,39.77,0,0,0,416.13,145.72Z"/><polygon class="cls-10" points="450.95 122.95 450.79 123.05 450.75 123.09 450.72 123.1 450.71 123.11 450.68 123.13 450.63 123.17 450.55 123.21 450.54 123.22 450.34 123.35 450.44 123.14 450.42 123.14 450.44 123.13 450.44 123.12 450.48 123.04 450.43 123.01 450.5 123 450.51 123 450.52 122.99 450.65 122.99 450.65 122.98 450.66 122.98 450.95 122.95"/><polygon class="cls-10" points="450.44 123.13 450.44 123.14 450.42 123.14 450.44 123.13"/><polygon class="cls-10" points="450.79 123.05 450.87 123.09 450.75 123.1 450.72 123.1 450.71 123.11 450.66 123.11 450.64 123.12 450.59 123.12 450.52 123.13 450.44 123.13 450.44 123.12 450.52 123.07 450.55 123.06 450.66 122.98 450.95 122.95 450.79 123.05"/><path class="cls-18" d="M511.56,116.14l-21.87,2.5a40.11,40.11,0,0,0-6.93-16.75l18.38-12.08A62,62,0,0,1,511.56,116.14Z"/><rect class="cls-19" x="404.89" y="99.48" width="23.08" height="156.54" rx="5.48" transform="translate(-25.13 77.58) rotate(-10.33)"/><path class="cls-8" d="M113.38,83C106.72,84.83,101.84,97,101.84,97"/><path class="cls-8" d="M92.71,114.42s-5.84,4.53-3.36,14.17"/><path class="cls-13" d="M128.06,77s-18.55,9.2-21.33,28.48C106.73,105.51,110.82,89,128.06,77Z"/><path class="cls-8" d="M148,209.68c3.66,5.84,16.68,7,16.68,7"/><path class="cls-8" d="M170.54,211.22c4.08,3,13.24.19,13.24.19"/><path class="cls-13" d="M160.46,212s18.34,9.63,35.58.57C196,212.57,180.27,218.94,160.46,212Z"/><path class="cls-13" d="M100.55,104.59s-6.19,7-5,14.23C95.5,118.82,97.72,107.93,100.55,104.59Z"/><path class="cls-13" d="M188.79,207.79s9.33-.55,13.65-6.46C202.44,201.33,193.15,207.44,188.79,207.79Z"/><path class="cls-8" d="M491.93,52.06c-4.31-5.37-17.37-5-17.37-5"/><path class="cls-13" d="M513,64.29S502.55,46.4,483.13,44.92C483.13,44.92,499.87,47.9,513,64.29Z"/><path class="cls-13" d="M507.17,63.65s-4.75-8-12-9.19C495.19,54.46,504.87,59.93,507.17,63.65Z"/><path class="cls-13" d="M501,68.57s-8.73-9.5-18.78-11.59C482.19,57,496.78,64.17,501,68.57Z"/><path class="cls-8" d="M689.23,232.77c6.47-2.38,10.26-14.88,10.26-14.88"/><path class="cls-13" d="M688.75,240s22.15-8.14,17.72-30.25C706.47,209.74,703.89,228.57,688.75,240Z"/><path class="cls-13" d="M701.13,218.37s4.25-8.31,1.34-15C702.47,203.33,703,214.43,701.13,218.37Z"/><path class="cls-13" d="M689.38,245.23s8.73-3.31,11.09-10.25C700.47,235,693.44,243.59,689.38,245.23Z"/><path class="cls-13" d="M100.89,118.37s-7.45,19.72-1.31,33.15C99.58,151.52,89.64,134.58,100.89,118.37Z"/><path class="cls-8" d="M369.94,90.82C364.44,95,364.46,108,364.46,108"/><path class="cls-8" d="M553,234.42c.46,6.87,11.4,14,11.4,14"/><path class="cls-13" d="M392.71,71.68s-18.55,9.2-21.32,28.48C371.39,100.16,375.48,83.65,392.71,71.68Z"/><path class="cls-13" d="M359.85,98.55s-4.23,8.33-1.31,15C358.54,113.6,358,102.5,359.85,98.55Z"/><path class="cls-13" d="M549,217.78s1.15,9.27,7.33,13.21C556.3,231,549.6,222.12,549,217.78Z"/><path class="cls-13" d="M373.45,122.18s-2.84,20.89,6.15,32.61C379.6,154.79,366.12,140.5,373.45,122.18Z"/><path class="cls-13" d="M559.61,233.65s11.13,17.9,25.53,21.19C585.14,254.84,565.65,252.43,559.61,233.65Z"/><path class="cls-20" d="M308.1,100.46s-.13,20.35-3.36,32.06a84.06,84.06,0,0,0-2.62,32.13s-1.12-11.77,1.69-18.43S311.2,116,308.1,100.46Z"/><path class="cls-20" d="M519.45,201s-1.78,7.5-8.36,10.22-8.24,2.3-9.54,4.06a12,12,0,0,1,4.17-3.23c2.67-1.25,6.24-1.76,8.42-4.19A43.91,43.91,0,0,0,519.45,201Z"/><path class="cls-20" d="M466.94,217.43s.56-4.56,7-5.79A21.2,21.2,0,0,0,466.94,217.43Z"/><path class="cls-8" d="M304.93,206.8a14.51,14.51,0,0,1-5.77-5.76c-2-3.85-1-6.56-1.63-7.78a8.46,8.46,0,0,1,1.82,3.83c.72,2.78.85,4.67,2.07,5.88S304.93,206.8,304.93,206.8Z"/><path class="cls-20" d="M236.66,236.09s-2.6,14,2.47,18.61,17.36,1.83,17.36,1.83-15.37-.95-16.86-5.51S236.66,236.09,236.66,236.09Z"/><path class="cls-21" d="M457,237.26s-5.26-8.18,1.17-14,.58-4.68,1.17-9.35,13.43-11.1,16.06-11.39,10.81,2,19,0,12.27-4.68,12.27-4.68.29,5.85-4.67,6.72-16.65,2.49-25.42,1.61c0,0-4.09-1.53-12.34,7.16a3.91,3.91,0,0,0-.07,3.79,3,3,0,0,1-.95,4.17c-1,.43-5.92,2.84-6.43,7.66A29.71,29.71,0,0,0,457,237.26Z"/><path class="cls-21" d="M307.22,160.43c-.3-1.37,1.75,10.91-.78,16s-5.26,8.76-3.89,13-.39,11.1,5.45,12.66,10.71.39,17.33,1.17c0,0-8.64-1.63-11.63-2.95s-5.19-1.9-5.63-5.62-2.55-5.7-.51-9,2.05-10.22,2.34-12.12S308,163.91,307.22,160.43Z"/><path class="cls-20" d="M312.47,190.24s-.37,4,2.33,4.72a29,29,0,0,0,7.57.83c1.13-.15.3-.45-3.75-2.47S318,190.09,312.47,190.24Z"/></svg>